<svg width="94" height="113" viewBox="0 0 94 113" fill="none" xmlns="http://www.w3.org/2000/svg">
<g filter="url(#filter0_di_4_2)">
<circle cx="46.0909" cy="60" r="45.4545" fill="#FFE096"/>
</g>
<g filter="url(#filter1_d_4_2)">
<path d="M67.4685 41.8372C68.6659 45.5225 73.8795 45.5225 75.077 41.8372L75.4773 40.6052C76.0128 38.9571 77.5486 37.8413 79.2815 37.8413H80.5769C84.4518 37.8413 86.0629 32.8828 82.9281 30.6052L81.88 29.8438C80.4781 28.8252 79.8915 27.0197 80.4269 25.3717L80.8273 24.1396C82.0247 20.4544 77.8067 17.3899 74.6719 19.6675L73.6239 20.4289C72.2219 21.4475 70.3235 21.4475 68.9216 20.4289L67.8736 19.6675C64.7387 17.3899 60.5208 20.4544 61.7182 24.1396L62.1185 25.3717C62.654 27.0197 62.0674 28.8252 60.6654 29.8438L59.6174 30.6052C56.4825 32.8828 58.0936 37.8413 61.9685 37.8413H63.264C64.9969 37.8413 66.5327 38.9571 67.0682 40.6052L67.4685 41.8372Z" fill="#FFF7CF"/>
</g>
<g filter="url(#filter2_d_4_2)">
<path d="M18.923 40.8372C20.1205 44.5225 25.3341 44.5225 26.5315 40.8372L26.9318 39.6052C27.4673 37.9571 29.0031 36.8413 30.736 36.8413H32.0315C35.9064 36.8413 37.5175 31.8828 34.3826 29.6052L33.3346 28.8438C31.9326 27.8252 31.346 26.0197 31.8815 24.3717L32.2818 23.1396C33.4792 19.4544 29.2613 16.3899 26.1264 18.6675L25.0784 19.4289C23.6765 20.4475 21.7781 20.4475 20.3761 19.4289L19.3281 18.6675C16.1933 16.3899 11.9753 19.4544 13.1727 23.1396L13.5731 24.3717C14.1085 26.0197 13.5219 27.8252 12.12 28.8438L11.0719 29.6052C7.93709 31.8828 9.54819 36.8413 13.4231 36.8413H14.7185C16.4514 36.8413 17.9872 37.9571 18.5227 39.6052L18.923 40.8372Z" fill="#FFD300"/>
</g>
<g filter="url(#filter3_d_4_2)">
<path d="M43.1958 33.7463C44.3932 37.4316 49.6068 37.4316 50.8042 33.7463L51.2045 32.5143C51.74 30.8662 53.2759 29.7504 55.0088 29.7504H56.3042C60.1791 29.7504 61.7902 24.7919 58.6553 22.5143L57.6073 21.7529C56.2054 20.7343 55.6187 18.9288 56.1542 17.2807L56.5545 16.0487C57.7519 12.3635 53.534 9.29899 50.3992 11.5766L49.3511 12.338C47.9492 13.3566 46.0508 13.3566 44.6489 12.338L43.6008 11.5766C40.466 9.29898 36.2481 12.3635 37.4455 16.0487L37.8458 17.2807C38.3813 18.9288 37.7946 20.7343 36.3927 21.7529L35.3447 22.5143C32.2098 24.7919 33.8209 29.7504 37.6958 29.7504H38.9912C40.7241 29.7504 42.26 30.8662 42.7955 32.5143L43.1958 33.7463Z" fill="#F0F0F0"/>
</g>
<g filter="url(#filter4_f_4_2)">
<path d="M84.2727 50C73.3636 80.5455 60.9394 87.5758 56.0909 87.2727" stroke="white" stroke-opacity="0.67" stroke-width="3"/>
</g>
<g filter="url(#filter5_f_4_2)">
<circle cx="43.3636" cy="97.2727" r="6.36364" fill="white" fill-opacity="0.4"/>
</g>
<defs>
<filter id="filter0_di_4_2" x="-0.363636" y="5.54546" width="91.9091" height="106.909" filterUnits="userSpaceOnUse" color-interpolation-filters="sRGB">
<feFlood flood-opacity="0" result="BackgroundImageFix"/>
<feColorMatrix in="SourceAlpha" type="matrix" values="0 0 0 0 0 0 0 0 0 0 0 0 0 0 0 0 0 0 127 0" result="hardAlpha"/>
<feOffset dy="7"/>
<feComposite in2="hardAlpha" operator="out"/>
<feColorMatrix type="matrix" values="0 0 0 0 0.756863 0 0 0 0 0.454902 0 0 0 0 0.0901961 0 0 0 1 0"/>
<feBlend mode="normal" in2="BackgroundImageFix" result="effect1_dropShadow_4_2"/>
<feBlend mode="normal" in="SourceGraphic" in2="effect1_dropShadow_4_2" result="shape"/>
<feColorMatrix in="SourceAlpha" type="matrix" values="0 0 0 0 0 0 0 0 0 0 0 0 0 0 0 0 0 0 127 0" result="hardAlpha"/>
<feOffset dx="-1" dy="-9"/>
<feGaussianBlur stdDeviation="15"/>
<feComposite in2="hardAlpha" operator="arithmetic" k2="-1" k3="1"/>
<feColorMatrix type="matrix" values="0 0 0 0 0.984314 0 0 0 0 0.960784 0 0 0 0 0.662745 0 0 0 1 0"/>
<feBlend mode="normal" in2="shape" result="effect2_innerShadow_4_2"/>
</filter>
<filter id="filter1_d_4_2" x="57.9609" y="18.8854" width="27.6237" height="27.7157" filterUnits="userSpaceOnUse" color-interpolation-filters="sRGB">
<feFlood flood-opacity="0" result="BackgroundImageFix"/>
<feColorMatrix in="SourceAlpha" type="matrix" values="0 0 0 0 0 0 0 0 0 0 0 0 0 0 0 0 0 0 127 0" result="hardAlpha"/>
<feOffset dx="1" dy="2"/>
<feComposite in2="hardAlpha" operator="out"/>
<feColorMatrix type="matrix" values="0 0 0 0 0.988235 0 0 0 0 0.894118 0 0 0 0 0.494118 0 0 0 1 0"/>
<feBlend mode="normal" in2="BackgroundImageFix" result="effect1_dropShadow_4_2"/>
<feBlend mode="normal" in="SourceGraphic" in2="effect1_dropShadow_4_2" result="shape"/>
</filter>
<filter id="filter2_d_4_2" x="9.41542" y="17.8854" width="27.6237" height="27.7157" filterUnits="userSpaceOnUse" color-interpolation-filters="sRGB">
<feFlood flood-opacity="0" result="BackgroundImageFix"/>
<feColorMatrix in="SourceAlpha" type="matrix" values="0 0 0 0 0 0 0 0 0 0 0 0 0 0 0 0 0 0 127 0" result="hardAlpha"/>
<feOffset dx="1" dy="2"/>
<feComposite in2="hardAlpha" operator="out"/>
<feColorMatrix type="matrix" values="0 0 0 0 0.988235 0 0 0 0 0.894118 0 0 0 0 0.494118 0 0 0 1 0"/>
<feBlend mode="normal" in2="BackgroundImageFix" result="effect1_dropShadow_4_2"/>
<feBlend mode="normal" in="SourceGraphic" in2="effect1_dropShadow_4_2" result="shape"/>
</filter>
<filter id="filter3_d_4_2" x="33.6881" y="10.7945" width="27.6237" height="27.7157" filterUnits="userSpaceOnUse" color-interpolation-filters="sRGB">
<feFlood flood-opacity="0" result="BackgroundImageFix"/>
<feColorMatrix in="SourceAlpha" type="matrix" values="0 0 0 0 0 0 0 0 0 0 0 0 0 0 0 0 0 0 127 0" result="hardAlpha"/>
<feOffset dx="1" dy="2"/>
<feComposite in2="hardAlpha" operator="out"/>
<feColorMatrix type="matrix" values="0 0 0 0 0.988235 0 0 0 0 0.894118 0 0 0 0 0.494118 0 0 0 1 0"/>
<feBlend mode="normal" in2="BackgroundImageFix" result="effect1_dropShadow_4_2"/>
<feBlend mode="normal" in="SourceGraphic" in2="effect1_dropShadow_4_2" result="shape"/>
</filter>
<filter id="filter4_f_4_2" x="49.9973" y="43.4955" width="41.688" height="51.2866" filterUnits="userSpaceOnUse" color-interpolation-filters="sRGB">
<feFlood flood-opacity="0" result="BackgroundImageFix"/>
<feBlend mode="normal" in="SourceGraphic" in2="BackgroundImageFix" result="shape"/>
<feGaussianBlur stdDeviation="3" result="effect1_foregroundBlur_4_2"/>
</filter>
<filter id="filter5_f_4_2" x="30" y="83.9091" width="26.7273" height="26.7273" filterUnits="userSpaceOnUse" color-interpolation-filters="sRGB">
<feFlood flood-opacity="0" result="BackgroundImageFix"/>
<feBlend mode="normal" in="SourceGraphic" in2="BackgroundImageFix" result="shape"/>
<feGaussianBlur stdDeviation="3.5" result="effect1_foregroundBlur_4_2"/>
</filter>
</defs>
</svg>
