<svg width="96" height="110" viewBox="0 0 96 110" fill="none" xmlns="http://www.w3.org/2000/svg">
<g filter="url(#filter0_di_4_37)">
<circle cx="47.0909" cy="60" r="45.4545" fill="#F7C346" fill-opacity="0.06" shape-rendering="crispEdges"/>
</g>
<g filter="url(#filter1_d_4_37)">
<path d="M69.4685 41.8372C70.6659 45.5225 75.8796 45.5225 77.077 41.8372L77.4773 40.6052C78.0128 38.9571 79.5486 37.8413 81.2815 37.8413H82.5769C86.4518 37.8413 88.0629 32.8828 84.9281 30.6052L83.88 29.8438C82.4781 28.8252 81.8915 27.0197 82.427 25.3717L82.8273 24.1396C84.0247 20.4544 79.8068 17.3899 76.6719 19.6675L75.6239 20.4289C74.2219 21.4475 72.3236 21.4475 70.9216 20.4289L69.8736 19.6675C66.7387 17.3899 62.5208 20.4544 63.7182 24.1396L64.1185 25.3717C64.654 27.0197 64.0674 28.8252 62.6654 29.8438L61.6174 30.6052C58.4826 32.8828 60.0937 37.8413 63.9686 37.8413H65.264C66.9969 37.8413 68.5327 38.9571 69.0682 40.6052L69.4685 41.8372Z" fill="#FFF7CF"/>
</g>
<g filter="url(#filter2_d_4_37)">
<path d="M18.923 41.8372C20.1205 45.5225 25.3341 45.5225 26.5315 41.8372L26.9318 40.6052C27.4673 38.9571 29.0031 37.8413 30.736 37.8413H32.0315C35.9064 37.8413 37.5175 32.8828 34.3826 30.6052L33.3346 29.8438C31.9326 28.8252 31.346 27.0197 31.8815 25.3717L32.2818 24.1396C33.4792 20.4544 29.2613 17.3899 26.1264 19.6675L25.0784 20.4289C23.6765 21.4475 21.7781 21.4475 20.3761 20.4289L19.3281 19.6675C16.1933 17.3899 11.9753 20.4544 13.1727 24.1396L13.5731 25.3717C14.1085 27.0197 13.5219 28.8252 12.12 29.8438L11.0719 30.6052C7.93709 32.8828 9.54819 37.8413 13.4231 37.8413H14.7185C16.4514 37.8413 17.9872 38.9571 18.5227 40.6052L18.923 41.8372Z" fill="#F0F0F0"/>
</g>
<g filter="url(#filter3_d_4_37)">
<path d="M44.1958 33.7463C45.3932 37.4316 50.6068 37.4316 51.8042 33.7463L52.2045 32.5143C52.74 30.8662 54.2758 29.7504 56.0087 29.7504H57.3042C61.1791 29.7504 62.7902 24.7919 59.6553 22.5143L58.6073 21.7529C57.2053 20.7343 56.6187 18.9288 57.1542 17.2807L57.5545 16.0487C58.7519 12.3635 54.534 9.29899 51.3991 11.5766L50.3511 12.338C48.9492 13.3566 47.0508 13.3566 45.6488 12.338L44.6008 11.5766C41.466 9.29898 37.248 12.3635 38.4454 16.0487L38.8458 17.2807C39.3813 18.9288 38.7946 20.7343 37.3927 21.7529L36.3446 22.5143C33.2098 24.7919 34.8209 29.7504 38.6958 29.7504H39.9912C41.7241 29.7504 43.2599 30.8662 43.7954 32.5143L44.1958 33.7463Z" fill="white"/>
</g>
<path d="M47.9999 43.6364C41.4751 43.6364 36.1958 48.9082 36.1958 55.4228V61.2419H40.1884V55.6794C40.1884 51.3597 43.688 47.8553 47.9999 47.8553C52.312 47.8553 55.8115 51.4575 55.8115 55.6793V61.2419H59.804V55.4229C59.804 49.0746 54.5135 43.6364 47.9999 43.6364H47.9999ZM34.3845 62.7463C33.2084 64.584 32.5455 66.703 32.5455 68.9275C32.5455 76.0408 39.386 81.9292 48.0001 81.9292C56.614 81.9292 63.4546 76.0408 63.4546 68.9275C63.4546 66.7028 62.7896 64.5843 61.613 62.7463H34.3844H34.3845ZM47.9773 64.6734C49.7758 64.6734 51.268 66.1177 51.268 67.9162C51.268 69.2651 50.4146 70.4303 49.2453 70.9251L51.8794 78.8248H44.1206L46.7069 70.9252C45.5374 70.4305 44.7319 69.2652 44.7319 67.9164C44.7319 66.1181 46.1787 64.6736 47.9772 64.6736L47.9773 64.6734Z" fill="#A48519" fill-opacity="0.56"/>
<g filter="url(#filter4_f_4_37)">
<path d="M85.2727 50C74.3636 80.5455 61.9394 87.5758 57.0909 87.2727" stroke="white" stroke-opacity="0.67" stroke-width="3"/>
</g>
<g filter="url(#filter5_f_4_37)">
<circle cx="44.3636" cy="97.2727" r="6.36364" fill="white" fill-opacity="0.4"/>
</g>
<defs>
<filter id="filter0_di_4_37" x="0.636353" y="5.54546" width="91.9091" height="103.909" filterUnits="userSpaceOnUse" color-interpolation-filters="sRGB">
<feFlood flood-opacity="0" result="BackgroundImageFix"/>
<feColorMatrix in="SourceAlpha" type="matrix" values="0 0 0 0 0 0 0 0 0 0 0 0 0 0 0 0 0 0 127 0" result="hardAlpha"/>
<feOffset dy="4"/>
<feComposite in2="hardAlpha" operator="out"/>
<feColorMatrix type="matrix" values="0 0 0 0 0.756863 0 0 0 0 0.454902 0 0 0 0 0.0901961 0 0 0 0.49 0"/>
<feBlend mode="normal" in2="BackgroundImageFix" result="effect1_dropShadow_4_37"/>
<feBlend mode="normal" in="SourceGraphic" in2="effect1_dropShadow_4_37" result="shape"/>
<feColorMatrix in="SourceAlpha" type="matrix" values="0 0 0 0 0 0 0 0 0 0 0 0 0 0 0 0 0 0 127 0" result="hardAlpha"/>
<feOffset dx="-1" dy="-9"/>
<feGaussianBlur stdDeviation="15"/>
<feComposite in2="hardAlpha" operator="arithmetic" k2="-1" k3="1"/>
<feColorMatrix type="matrix" values="0 0 0 0 0.984314 0 0 0 0 0.960784 0 0 0 0 0.662745 0 0 0 1 0"/>
<feBlend mode="normal" in2="shape" result="effect2_innerShadow_4_37"/>
</filter>
<filter id="filter1_d_4_37" x="59.9609" y="18.8854" width="27.6237" height="27.7157" filterUnits="userSpaceOnUse" color-interpolation-filters="sRGB">
<feFlood flood-opacity="0" result="BackgroundImageFix"/>
<feColorMatrix in="SourceAlpha" type="matrix" values="0 0 0 0 0 0 0 0 0 0 0 0 0 0 0 0 0 0 127 0" result="hardAlpha"/>
<feOffset dx="1" dy="2"/>
<feComposite in2="hardAlpha" operator="out"/>
<feColorMatrix type="matrix" values="0 0 0 0 0.988235 0 0 0 0 0.894118 0 0 0 0 0.494118 0 0 0 1 0"/>
<feBlend mode="normal" in2="BackgroundImageFix" result="effect1_dropShadow_4_37"/>
<feBlend mode="normal" in="SourceGraphic" in2="effect1_dropShadow_4_37" result="shape"/>
</filter>
<filter id="filter2_d_4_37" x="9.41541" y="18.8854" width="27.6237" height="27.7157" filterUnits="userSpaceOnUse" color-interpolation-filters="sRGB">
<feFlood flood-opacity="0" result="BackgroundImageFix"/>
<feColorMatrix in="SourceAlpha" type="matrix" values="0 0 0 0 0 0 0 0 0 0 0 0 0 0 0 0 0 0 127 0" result="hardAlpha"/>
<feOffset dx="1" dy="2"/>
<feComposite in2="hardAlpha" operator="out"/>
<feColorMatrix type="matrix" values="0 0 0 0 0.988235 0 0 0 0 0.894118 0 0 0 0 0.494118 0 0 0 1 0"/>
<feBlend mode="normal" in2="BackgroundImageFix" result="effect1_dropShadow_4_37"/>
<feBlend mode="normal" in="SourceGraphic" in2="effect1_dropShadow_4_37" result="shape"/>
</filter>
<filter id="filter3_d_4_37" x="34.6881" y="10.7945" width="27.6237" height="27.7157" filterUnits="userSpaceOnUse" color-interpolation-filters="sRGB">
<feFlood flood-opacity="0" result="BackgroundImageFix"/>
<feColorMatrix in="SourceAlpha" type="matrix" values="0 0 0 0 0 0 0 0 0 0 0 0 0 0 0 0 0 0 127 0" result="hardAlpha"/>
<feOffset dx="1" dy="2"/>
<feComposite in2="hardAlpha" operator="out"/>
<feColorMatrix type="matrix" values="0 0 0 0 0.988235 0 0 0 0 0.894118 0 0 0 0 0.494118 0 0 0 1 0"/>
<feBlend mode="normal" in2="BackgroundImageFix" result="effect1_dropShadow_4_37"/>
<feBlend mode="normal" in="SourceGraphic" in2="effect1_dropShadow_4_37" result="shape"/>
</filter>
<filter id="filter4_f_4_37" x="53.7973" y="46.2955" width="36.088" height="45.6866" filterUnits="userSpaceOnUse" color-interpolation-filters="sRGB">
<feFlood flood-opacity="0" result="BackgroundImageFix"/>
<feBlend mode="normal" in="SourceGraphic" in2="BackgroundImageFix" result="shape"/>
<feGaussianBlur stdDeviation="1.6" result="effect1_foregroundBlur_4_37"/>
</filter>
<filter id="filter5_f_4_37" x="34" y="86.9091" width="20.7273" height="20.7273" filterUnits="userSpaceOnUse" color-interpolation-filters="sRGB">
<feFlood flood-opacity="0" result="BackgroundImageFix"/>
<feBlend mode="normal" in="SourceGraphic" in2="BackgroundImageFix" result="shape"/>
<feGaussianBlur stdDeviation="2" result="effect1_foregroundBlur_4_37"/>
</filter>
</defs>
</svg>
